DOMENICA-MONO ESI HAMOGELAS video clip 2009 DVDrip

the new video clip from Greek Rock band DOMENICA

Directed by Zerosinapsi




General
Complete name                    : F:μTorrent 1.7.6completed downloadsMY UPLOADSMONO ESI HAMOGELAS.avi
Format                           : AVI
Format/Info                      : Audio Video Interleave
File size                        : 64.9 MiB
Duration                         : 3mn 10s
Overall bit rate                 : 2 860 Kbps
Writing application              : Lavf52.0.0

Video
Format                           : MPEG-4 Visual
Format profile                   : Simple Streaming Video@L1
Format settings, BVOP            : Yes
Format settings, QPel            : No
Format settings, GMC             : No warppoints
Format settings, Matrix          : Default
Codec ID                         : DX50
Codec ID/Hint                    : DivX 5
Duration                         : 3mn 10s
Bit rate                         : 2 720 Kbps
Width                            : 720 pixels
Height                           : 576 pixels
Display aspect ratio             : 4/3
Frame rate                       : 25.000 fps
Standard                         : PAL
Resolution                       : 24 bits
Colorimetry                      : 4:2:0
Scan type                        : Progressive
Bits/(Pixel*Frame)               : 0.262
Stream size                      : 61.7 MiB (95%)
Writing library                  : Lavc51.48.0

Audio
Format                           : MPEG Audio
Format version                   : Version 1
Format profile                   : Layer 3
Codec ID                         : 55
Codec ID/Hint                    : MP3
Duration                         : 3mn 10s
Bit rate mode                    : Constant
Bit rate                         : 128 Kbps
Channel(s)                       : 2 channels
Sampling rate                    : 44.1 KHz
Resolution                       : 16 bits
Stream size                      : 2.91 MiB (4%)
Alignment                        : Aligned on interleaves
Interleave, duration             : 26 ms (0.65 video frame)
Writing library                  : LAME3.96.1

